<?xml version="1.0" encoding="UTF-8" standalone="no"?>
<!DOCTYPE svg PUBLIC "-//W3C//DTD SVG 1.1//EN" "http://www.w3.org/Graphics/SVG/1.1/DTD/svg11.dtd">
<svg width="100%" height="100%" viewBox="0 0 630 630" version="1.1" xmlns="http://www.w3.org/2000/svg" xmlns:xlink="http://www.w3.org/1999/xlink" xml:space="preserve" xmlns:serif="http://www.serif.com/" style="fill-rule:evenodd;clip-rule:evenodd;stroke-linejoin:round;stroke-miterlimit:2;">
    <g transform="matrix(2.52,0,0,1.3125,126,-157.5)">
        <rect x="-50" y="120" width="250" height="80" style="fill:rgb(97,187,70);"/>
    </g>
    <g transform="matrix(2.52,0,0,1.3125,126,-52.5)">
        <rect x="-50" y="120" width="250" height="80" style="fill:rgb(253,184,39);"/>
    </g>
    <g transform="matrix(2.52,0,0,1.3125,126,52.5)">
        <rect x="-50" y="120" width="250" height="80" style="fill:rgb(245,130,31);"/>
    </g>
    <g transform="matrix(2.52,0,0,1.3125,126,157.5)">
        <rect x="-50" y="120" width="250" height="80" style="fill:rgb(224,58,62);"/>
    </g>
    <g transform="matrix(2.52,0,0,1.3125,126,262.5)">
        <rect x="-50" y="120" width="250" height="80" style="fill:rgb(150,61,151);"/>
    </g>
    <g transform="matrix(2.52,0,0,1.3125,126,367.5)">
        <rect x="-50" y="120" width="250" height="80" style="fill:rgb(0,157,220);"/>
    </g>
    <g transform="matrix(1.88326,0,0,1.88326,-418.938,104.895)">
        <path d="M331.156,252.927C359.236,252.927 363.844,236.511 363.844,216.207L363.844,161.919C363.844,154.575 358.804,149.823 351.892,149.823C344.836,149.823 339.94,154.719 339.94,161.919L339.94,216.495C339.94,226.431 338.5,231.903 328.996,231.903C325.972,231.903 324.532,231.615 323.092,231.615C317.332,231.615 312.724,235.935 312.724,241.551C312.724,246.447 316.18,250.479 320.788,251.775C323.956,252.639 328.132,252.927 331.156,252.927Z" style="fill:white;fill-rule:nonzero;stroke:black;stroke-width:4.78px;"/>
    </g>
    <g transform="matrix(1.88326,0,0,1.88326,-418.938,104.895)">
        <path d="M386.596,252.927C391.204,252.927 395.092,250.623 396.964,246.879L410.932,219.087L412.084,219.087L426.052,246.879C427.924,250.623 431.812,252.927 436.42,252.927C443.188,252.927 448.228,247.887 448.228,241.407C448.228,239.103 447.508,237.231 446.356,235.071L427.06,199.647L444.484,168.831C445.78,166.527 446.644,164.079 446.644,161.343C446.644,154.719 441.604,149.823 434.836,149.823C428.932,149.823 425.62,152.703 423.46,157.167L412.084,181.791L410.932,181.791L399.556,157.167C397.396,152.703 394.084,149.823 388.18,149.823C381.412,149.823 376.372,154.719 376.372,161.343C376.372,164.079 377.236,166.527 378.532,168.831L395.956,199.647L376.66,235.071C375.508,237.231 374.788,239.103 374.788,241.407C374.788,247.887 379.828,252.927 386.596,252.927Z" style="fill:white;fill-rule:nonzero;stroke:black;stroke-width:4.78px;"/>
    </g>
    <g transform="matrix(1.88326,0,0,1.88326,-418.938,104.895)">
        <path d="M466.516,252.927C471.844,252.927 476.596,249.183 478.036,244.143L481.204,232.047L506.26,232.047L509.428,243.135C511.156,249.039 515.476,252.927 521.236,252.927C527.716,252.927 533.188,247.455 533.188,240.975C533.188,239.391 532.9,237.663 532.468,236.511L507.124,157.023C505.684,152.559 501.94,149.679 496.612,149.679L491.284,149.679C485.812,149.679 482.068,152.271 480.628,157.023L455.284,236.367C454.852,237.951 454.564,239.391 454.564,240.975C454.564,247.455 460.036,252.927 466.516,252.927ZM485.956,211.455L493.444,182.223L494.02,182.223L501.508,211.455L485.956,211.455Z" style="fill:white;fill-rule:nonzero;stroke:black;stroke-width:4.78px;"/>
    </g>
</svg>
