<?xml version="1.0" encoding="UTF-8" standalone="no"?>
<!DOCTYPE svg PUBLIC "-//W3C//DTD SVG 1.1//EN" "http://www.w3.org/Graphics/SVG/1.1/DTD/svg11.dtd">
<svg width="100%" height="100%" viewBox="0 0 1024 1024" version="1.1" xmlns="http://www.w3.org/2000/svg" xmlns:xlink="http://www.w3.org/1999/xlink" xml:space="preserve" xmlns:serif="http://www.serif.com/" style="fill-rule:evenodd;clip-rule:evenodd;stroke-linejoin:round;stroke-miterlimit:2;">
    <path d="M409.196,847.935L169.506,432.838L169.505,432.839L160.943,418.012C132.583,368.882 149.415,306.064 198.543,277.7C247.669,249.335 310.49,266.167 338.848,315.299C341.713,320.268 344.158,325.468 346.157,330.845L346.158,330.844C363.384,376.987 345.329,430.158 301.257,455.607L657.07,250.176L862.501,605.991L868.024,615.561C889.014,662.943 871.312,719.506 825.423,746.004L558.041,900.377L469.087,951.734L380.134,1003.09C429.264,974.722 446.094,911.908 417.734,862.779L409.172,847.949L409.196,847.935Z" style="fill:rgb(247,223,30);fill-rule:nonzero;stroke:black;stroke-width:10px;"/>
    <path d="M783.622,58.509C755.257,9.379 692.437,-7.453 643.308,20.912L554.356,72.268L198.543,277.7C247.67,249.335 310.49,266.167 338.851,315.297C341.714,320.267 344.159,325.467 346.161,330.843L346.161,330.844C363.384,376.987 345.333,430.156 301.258,455.607L657.07,250.177L657.591,249.878L746.024,198.82C795.151,170.455 811.983,107.637 783.622,58.509ZM417.732,862.777L366.377,773.822L277.424,825.179C228.295,853.544 211.463,916.361 239.824,965.491C268.188,1014.62 331.008,1031.45 380.136,1003.09C429.265,974.725 446.096,911.908 417.732,862.777Z" style="fill:rgb(247,223,30);fill-rule:nonzero;stroke:black;stroke-width:10px;stroke-linecap:square;"/>
    <g transform="matrix(0.705326,-0.40722,0.40722,0.705326,167.906,445.907)">
        <path d="M423.2,492.19C435.89,512.91 452.4,528.14 481.6,528.14C506.13,528.14 521.8,515.88 521.8,498.94C521.8,478.64 505.7,471.45 478.7,459.64L463.9,453.29C421.18,435.09 392.8,412.29 392.8,364.09C392.8,319.69 426.63,285.89 479.5,285.89C517.14,285.89 544.2,298.99 563.7,333.29L517.6,362.89C507.45,344.69 496.5,337.52 479.5,337.52C462.16,337.52 451.17,348.52 451.17,362.89C451.17,380.65 462.17,387.84 487.57,398.84L502.37,405.18C552.67,426.75 581.07,448.74 581.07,498.18C581.07,551.48 539.2,580.68 482.97,580.68C427.99,580.68 392.47,554.48 375.09,520.14L423.2,492.19ZM214.07,497.32C223.37,513.82 231.83,527.77 252.17,527.77C271.62,527.77 283.89,520.16 283.89,490.57L283.89,289.27L343.09,289.27L343.09,491.37C343.09,552.67 307.15,580.57 254.69,580.57C207.29,580.57 179.84,556.04 165.88,526.495L214.07,497.32Z" style="fill-rule:nonzero;stroke:black;stroke-width:3.68px;"/>
    </g>
</svg>
