<?xml version="1.0" encoding="UTF-8" standalone="no"?>
<!DOCTYPE svg PUBLIC "-//W3C//DTD SVG 1.1//EN" "http://www.w3.org/Graphics/SVG/1.1/DTD/svg11.dtd">
<svg width="100%" height="100%" viewBox="0 0 1024 1024" version="1.1" xmlns="http://www.w3.org/2000/svg" xmlns:xlink="http://www.w3.org/1999/xlink" xml:space="preserve" xmlns:serif="http://www.serif.com/" style="fill-rule:evenodd;clip-rule:evenodd;stroke-linejoin:round;stroke-miterlimit:2;">
    <path d="M868.024,615.561L862.501,605.991L853.939,591.163L409.172,847.949L417.734,862.779C446.094,911.908 429.264,974.722 380.134,1003.09L469.087,951.734L558.041,900.377L825.423,746.004C871.312,719.506 889.014,662.943 868.024,615.561Z" style="fill:rgb(247,223,30);fill-rule:nonzero;"/>
    <path d="M794.031,487.377L853.949,591.152L409.198,847.938L349.281,744.165L794.031,487.377Z" style="fill:rgb(247,223,30);fill-rule:nonzero;"/>
    <path d="M734.116,383.599L794.033,487.374L349.28,744.16L289.363,640.385L734.116,383.599Z" style="fill:rgb(247,223,30);fill-rule:nonzero;"/>
    <path d="M674.194,279.819L734.11,383.597L289.357,640.379L229.441,536.604L674.194,279.819Z" style="fill:rgb(247,223,30);fill-rule:nonzero;"/>
    <path d="M198.543,277.7C149.415,306.064 132.583,368.882 160.943,418.012L169.505,432.839L346.158,330.847C344.159,325.47 341.714,320.269 338.848,315.299C310.49,266.167 247.669,249.335 198.543,277.7Z" style="fill:rgb(247,223,30);fill-rule:nonzero;"/>
    <path d="M346.158,330.844L169.505,432.837L229.422,536.613L674.189,279.826L657.07,250.176L301.257,455.607C345.329,430.158 363.384,376.987 346.158,330.844Z" style="fill:rgb(247,223,30);fill-rule:nonzero;"/>
    <path d="M783.622,58.509C755.257,9.379 692.437,-7.453 643.308,20.912L554.356,72.268L198.543,277.7C247.67,249.335 310.49,266.167 338.851,315.297C341.714,320.267 344.159,325.467 346.161,330.843L346.161,330.844C363.384,376.987 345.333,430.156 301.258,455.607L657.07,250.177L657.591,249.878L746.024,198.82C795.151,170.455 811.983,107.637 783.622,58.509ZM417.732,862.777L366.377,773.822L277.424,825.179C228.295,853.544 211.463,916.361 239.824,965.491C268.188,1014.62 331.008,1031.45 380.136,1003.09C429.265,974.725 446.096,911.908 417.732,862.777Z" style="fill:rgb(247,223,30);fill-rule:nonzero;stroke:black;stroke-width:1px;"/>
    <path d="M874.544,612.672L863.669,593.783L863.686,593.773L803.77,489.998L743.853,386.219L739.126,378.022L736.722,373.862L676.803,270.082L666.818,252.787L749.592,204.996C775,190.325 793.182,166.636 800.774,138.295C808.371,109.953 804.472,80.352 789.801,54.941C770.233,21.053 733.743,0 694.573,0C675.397,0 656.436,5.096 639.741,14.735L550.789,66.093L550.786,66.087L194.981,271.518L194.981,271.519L194.969,271.525C169.564,286.192 151.387,309.879 143.795,338.221C136.199,366.563 140.094,396.165 154.767,421.575L159.76,430.225L226.814,546.359L279.595,637.783L339.514,741.56L356.629,771.21L273.858,819.003C221.401,849.286 203.366,916.601 233.65,969.06C253.213,1002.95 289.703,1024 328.877,1024L328.88,1024C348.051,1024 367.013,1018.9 383.708,1009.27C383.716,1009.26 383.724,1009.26 383.734,1009.25L828.987,752.177C877.727,724.041 897.311,664.066 874.544,612.672ZM844.195,588.555L818.453,603.416L411.783,838.207L368.986,764.078L368.985,764.078L358.999,746.783L765.672,511.992L791.412,497.13L844.195,588.555ZM646.875,27.09C661.408,18.701 677.896,14.267 694.573,14.267C728.661,14.267 760.416,32.585 777.444,62.076C790.211,84.184 793.598,109.942 786.99,134.603C780.383,159.264 764.564,179.875 742.458,192.642L344.755,422.253C357.092,401.269 362.072,376.753 358.899,352.618C358.07,346.335 356.7,340.135 354.805,334.088L354.951,334.003L352.867,328.412C352.858,328.391 352.85,328.366 352.839,328.347C352.836,328.339 352.833,328.332 352.831,328.324L349.893,320.449L349.608,320.614C348.216,317.584 346.688,314.619 345.029,311.727C325.463,277.839 288.973,256.787 249.802,256.787C249.538,256.787 249.282,256.787 249.017,256.79L646.875,27.09ZM167.119,414.447C154.355,392.335 150.966,366.576 157.572,341.915C164.181,317.253 179.999,296.642 202.107,283.877C216.634,275.487 233.128,271.053 249.802,271.053C257.26,271.053 264.604,271.929 271.706,273.608C297.077,279.604 319.37,295.823 332.668,318.862C333.428,320.186 334.155,321.528 334.85,322.887C335.058,323.299 335.261,323.718 335.467,324.133C336.07,325.336 336.642,326.554 337.184,327.785L264.189,369.931L172.114,423.094L167.119,414.447ZM179.249,435.446L242.871,398.713L342.098,341.426C342.104,341.448 342.111,341.469 342.12,341.49C342.266,342.026 342.39,342.564 342.527,343.102C342.735,343.911 342.952,344.722 343.137,345.531C343.274,346.128 343.387,346.725 343.513,347.325C343.671,348.081 343.837,348.834 343.972,349.59C344.088,350.207 344.179,350.824 344.282,351.44C344.404,352.178 344.528,352.915 344.631,353.653C344.718,354.28 344.791,354.909 344.866,355.537C344.953,356.266 345.042,356.992 345.11,357.719C345.171,358.35 345.219,358.985 345.266,359.617C345.322,360.339 345.373,361.062 345.412,361.784C345.447,362.419 345.469,363.053 345.49,363.685C345.539,365.036 345.555,366.387 345.54,367.739C345.532,368.454 345.518,369.17 345.498,369.885C345.455,371.23 345.382,372.573 345.279,373.915C345.182,375.255 345.052,376.592 344.891,377.926C344.741,379.26 344.557,380.589 344.337,381.913C344.24,382.517 344.145,383.124 344.037,383.726C343.908,384.444 343.761,385.161 343.614,385.878C343.494,386.466 343.376,387.058 343.243,387.644C343.077,388.372 342.902,389.099 342.718,389.823C342.575,390.389 342.446,390.956 342.29,391.519C342.089,392.274 341.862,393.022 341.64,393.77C341.487,394.298 341.341,394.826 341.178,395.349C340.91,396.194 340.618,397.032 340.329,397.869C340.185,398.286 340.055,398.708 339.904,399.124C339.458,400.366 338.984,401.598 338.483,402.819C338.343,403.162 338.186,403.498 338.043,403.838C337.667,404.722 337.294,405.602 336.893,406.473C336.672,406.96 336.428,407.439 336.201,407.922C335.858,408.637 335.515,409.357 335.155,410.065C334.886,410.583 334.609,411.094 334.333,411.607C333.98,412.27 333.629,412.932 333.262,413.587C332.966,414.113 332.655,414.631 332.347,415.151C331.972,415.78 331.606,416.408 331.221,417.03C330.893,417.554 330.554,418.072 330.218,418.592C329.826,419.196 329.432,419.798 329.03,420.392C328.676,420.911 328.311,421.422 327.948,421.932C327.536,422.514 327.118,423.092 326.693,423.665C326.312,424.172 325.925,424.674 325.539,425.177C325.102,425.74 324.658,426.298 324.207,426.85C322.951,428.397 321.647,429.903 320.296,431.368C319.809,431.894 319.316,432.414 318.817,432.928C318.374,433.39 317.921,433.852 317.465,434.306C316.95,434.816 316.43,435.319 315.903,435.817C315.439,436.258 314.974,436.7 314.502,437.13C313.956,437.626 313.403,438.114 312.843,438.595C312.365,439.012 311.889,439.432 311.401,439.841C310.822,440.327 310.226,440.795 309.635,441.267C309.146,441.657 308.663,442.05 308.164,442.43C307.542,442.909 306.899,443.372 306.259,443.836C305.771,444.191 305.292,444.551 304.798,444.897C304.094,445.391 303.372,445.863 302.651,446.338C302.202,446.635 301.758,446.942 301.303,447.234C300.263,447.892 299.211,448.531 298.148,449.151C297.997,449.239 297.846,449.337 297.694,449.427L304.827,461.781L304.835,461.776L304.86,461.765L522.96,335.84L654.46,259.919L664.444,277.216L646.899,287.347L232.032,526.871L179.249,435.446ZM239.165,539.225L654.033,299.702L671.577,289.571L724.361,380.995L291.95,630.648L239.165,539.225ZM351.865,734.43L299.08,643.002L731.494,393.353L784.278,484.777L758.536,499.637L351.865,734.43ZM376.57,996.91C362.039,1005.3 345.548,1009.74 328.877,1009.74L328.875,1009.74C294.785,1009.74 263.03,991.416 246.002,961.927C219.653,916.281 235.347,857.712 280.988,831.361L363.763,783.568L379.367,810.593L411.553,866.347C437.907,911.988 422.209,970.561 376.57,996.91ZM821.855,739.822L423.416,969.863C423.859,969.117 424.276,968.351 424.698,967.593C424.837,967.343 424.983,967.095 425.119,966.849C425.838,965.525 426.53,964.186 427.193,962.833C427.396,962.423 427.59,962.011 427.787,961.599C428.332,960.46 428.858,959.311 429.364,958.154C429.49,957.865 429.624,957.578 429.749,957.289C430.508,955.499 431.219,953.689 431.883,951.862C432.311,950.69 432.719,949.514 433.108,948.329C433.212,948.001 433.324,947.679 433.428,947.35C433.884,945.912 434.305,944.469 434.704,943.01C434.81,942.608 434.912,942.205 435.02,941.795C435.332,940.592 435.624,939.385 435.899,938.174C435.978,937.819 436.066,937.465 436.138,937.11C436.454,935.631 436.741,934.149 436.996,932.659C437.062,932.27 437.121,931.874 437.186,931.485C437.384,930.256 437.561,929.024 437.714,927.788C437.761,927.409 437.817,927.034 437.861,926.649C438.037,925.141 438.176,923.633 438.291,922.118C438.322,921.745 438.337,921.374 438.361,920.999C438.445,919.746 438.504,918.491 438.539,917.235C438.553,916.842 438.569,916.444 438.575,916.047C438.605,914.524 438.604,912.994 438.569,911.469C438.561,911.121 438.541,910.772 438.532,910.424C438.491,909.151 438.428,907.879 438.343,906.608C438.315,906.198 438.291,905.79 438.26,905.378C438.14,903.849 437.99,902.317 437.806,900.782C437.767,900.47 437.72,900.161 437.681,899.85C437.512,898.555 437.32,897.263 437.105,895.975L436.898,894.719C436.626,893.186 436.32,891.66 435.981,890.141C435.92,889.873 435.852,889.604 435.791,889.34C435.486,888.024 435.156,886.714 434.802,885.41C434.689,884.988 434.578,884.568 434.458,884.148C434.029,882.627 433.567,881.115 433.072,879.613C433.003,879.408 432.925,879.195 432.853,878.986C432.404,877.652 431.92,876.326 431.413,874.998C430.685,873.073 429.901,871.17 429.062,869.291C429,869.145 428.928,869.012 428.864,868.869C428.243,867.502 427.593,866.148 426.915,864.808C426.709,864.398 426.501,863.992 426.293,863.585C425.551,862.163 424.793,860.745 423.983,859.343C423.957,859.3 423.939,859.255 423.912,859.212L418.918,850.562L851.327,600.912L861.65,618.791C881.221,663.424 864.154,715.402 821.855,739.822Z" style="fill-rule:nonzero;"/>
    <g transform="matrix(0.705326,-0.40722,0.40722,0.705326,167.906,445.907)">
        <path d="M423.2,492.19C435.89,512.91 452.4,528.14 481.6,528.14C506.13,528.14 521.8,515.88 521.8,498.94C521.8,478.64 505.7,471.45 478.7,459.64L463.9,453.29C421.18,435.09 392.8,412.29 392.8,364.09C392.8,319.69 426.63,285.89 479.5,285.89C517.14,285.89 544.2,298.99 563.7,333.29L517.6,362.89C507.45,344.69 496.5,337.52 479.5,337.52C462.16,337.52 451.17,348.52 451.17,362.89C451.17,380.65 462.17,387.84 487.57,398.84L502.37,405.18C552.67,426.75 581.07,448.74 581.07,498.18C581.07,551.48 539.2,580.68 482.97,580.68C427.99,580.68 392.47,554.48 375.09,520.14L423.2,492.19ZM214.07,497.32C223.37,513.82 231.83,527.77 252.17,527.77C271.62,527.77 283.89,520.16 283.89,490.57L283.89,289.27L343.09,289.27L343.09,491.37C343.09,552.67 307.15,580.57 254.69,580.57C207.29,580.57 179.84,556.04 165.88,526.495L214.07,497.32Z" style="fill-rule:nonzero;stroke:black;stroke-width:3.68px;"/>
    </g>
</svg>
